<svg width="595" height="842" viewBox="0 0 595 842" fill="none" xmlns="http://www.w3.org/2000/svg">
<path d="M269.5 497L288.5 723.5H282L225.5 672.5C203.5 658.1 190 612.5 186 591.5M269.5 497L282 720M269.5 497C254.5 498.667 223.5 499.4 219.5 489C214.5 476 216 463.5 234 454C239 449.333 255.6 445.7 282 468.5M329.5 497L313 723.5H307L323 497H329.5ZM329.5 497C344.333 498.5 374.7 498.2 377.5 485C383.5 460.2 359.667 451.333 347 450C339 450 322.333 462.333 315 468.5V519.5L297.5 526" stroke="black"/>
<path d="M189 579.5C189 633 229.167 663.5 265 696.5L261.25 603.75L257.5 511C213.9 515.8 205.667 489.333 207 475.5C207.583 466.167 214 446.5 235 442.5C244.833 438.667 269.6 437.5 290 463.5V511L296.5 517M281.5 468L279 521L296.5 526V517M296.5 517L306 511L302.5 463.5C311.667 454.667 332.2 437.1 341 437.5C351 437.5 388.5 451 387.5 468C389 480.333 386.1 506.2 362.5 511H341L330.5 696.5C353.167 678.5 398.6 637.5 399 617.5" stroke="black"/>
<path d="M180.5 520L190 581H194L187.5 511.5C179.9 506.7 179.667 515.167 180.5 520ZM180.5 520C181.333 541.833 183.1 586.7 183.5 591.5" stroke="black"/>
<path d="M404 433.5L351.5 411.5L295 433.5C279.333 426.667 247 412.7 243 411.5C239 410.3 206.333 428 190.5 437L185.5 510.5V452.5C184.667 450.833 182.9 445.4 182.5 437C182.1 428.6 187.667 422.167 190.5 420M404 433.5L409.5 510.5M404 433.5L413.5 437L409.5 420L406.5 418.833M409.5 510.5C412.5 509.667 418 510.5 416 520.5C414 530.5 413.5 555.333 413.5 566.5L410.409 583.5M409.5 510.5L413.5 520.5L409.5 588.5L410.409 583.5M409.5 579H404C404.333 587.667 400.2 611.3 381 636.5C361.8 661.7 340.667 683.667 332.5 691.5M312.5 724C339.833 701.5 395.2 652.5 398 636.5C404.273 620.333 415.536 587.1 410.409 583.5M190.5 420C208.333 410.833 244.8 393.1 248 395.5M190.5 420C196.9 376 228.167 354 243 348.5M248 395.5C251.2 397.9 283 412.833 298.5 420L346.5 395.5M248 395.5C256.8 371.1 248.333 354 243 348.5M346.5 395.5C339.7 375.9 347 354 351.5 345.5M346.5 395.5L406.5 418.833M243 348.5V342L258.5 338.5M351.5 345.5L338 338.5M351.5 345.5C365.833 351.889 396.9 375.5 406.5 418.833M338 338.5L334.75 352.75M338 338.5L346.5 290.5M258.5 338.5L262.75 352.75M258.5 338.5L248 293.5M262.75 352.75L267 367H279.5M262.75 352.75C283.667 351 327.35 348.55 334.75 352.75M334.75 352.75L331.5 367H318.5M248 293.5L258.5 290.5M248 293.5L228.5 158.5M258.5 290.5L271.5 348.5L324.5 345.5L338 290.5M258.5 290.5L243 226M338 290.5H346.5M338 290.5L356.25 223M346.5 290.5C351 287.5 370 158.5 366 155.5M346.5 290.5L356.25 223M279.5 367L282 386C288.5 384.667 303.8 382.8 313 386L318.5 367M279.5 367H318.5M243 226H255.5L258.5 231L262.75 226H267L279.5 235L292.5 226M243 226L228.5 158.5M228.5 158.5C235.833 156 255.8 151 277 151C303.5 151 362 152.5 366 155.5M366 155.5L356.25 223" stroke="black"/>
<path d="M294.5 225.5C298.329 225.999 301.767 226.741 305.611 226C307.365 225.662 308.025 225.683 309.611 226.722C312.261 228.458 315.573 227.715 318.75 227.444C320.961 227.256 321.748 226.957 322.028 225C322.227 223.604 324.077 224 325.111 224C326.869 224 328.62 226.288 330.222 227.25C332.664 228.715 333.474 229 336.5 229C338.968 229 340.833 231 343.389 231C345.69 231 349.056 231.43 350.944 229.778C352.605 228.325 354.949 228.466 356.5 229.5" stroke="black" stroke-linecap="round" stroke-linejoin="round"/>
<path d="M328.5 497L355.5 452.5C348 442.5 325 460.5 314 468.5V520.5L298.5 526.5L280 520.5V495.5L270 512.5L272.5 538L298.5 532L275.5 567.5L282 638L317 605V587L298.5 592L317 563.5L323.5 512.5H317L323.5 506V497H328.5Z" fill="#FFD705" stroke="black"/>
<path d="M439.5 279C441.1 295.8 408.833 356.333 392.5 384.5C390.778 380.624 387.239 375.802 383.664 371.5C380.596 367.809 377.501 364.501 375.5 362.5L399.5 324C418.7 296.4 434.167 282.5 439.5 279Z" fill="#C4C4C4"/>
<path d="M383.664 371.5C380.596 367.809 377.501 364.501 375.5 362.5L399.5 324C418.7 296.4 434.167 282.5 439.5 279C441.1 295.8 408.833 356.333 392.5 384.5C390.778 380.624 387.239 375.802 383.664 371.5ZM383.664 371.5L423 306.5" stroke="black"/>
</svg>
